<?xml version="1.0" encoding="UTF-8" standalone="no"?>
<svg
   xmlns:dc="http://purl.org/dc/elements/1.1/"
   xmlns:cc="http://creativecommons.org/ns#"
   xmlns:rdf="http://www.w3.org/1999/02/22-rdf-syntax-ns#"
   xmlns:svg="http://www.w3.org/2000/svg"
   xmlns="http://www.w3.org/2000/svg"
   xmlns:xlink="http://www.w3.org/1999/xlink"
   xmlns:sodipodi="http://sodipodi.sourceforge.net/DTD/sodipodi-0.dtd"
   xmlns:inkscape="http://www.inkscape.org/namespaces/inkscape"
   width="512.0px"
   height="512.0px"
   viewBox="0 0 512.0 512.0"
   version="1.1"
   id="SVGRoot"
   sodipodi:docname="granite.svg"
   inkscape:version="0.92.5 (2060ec1f9f, 2020-04-08)"
   inkscape:export-filename="/media/ronja/Data/IconTest/granite.png"
   inkscape:export-xdpi="48"
   inkscape:export-ydpi="48">
  <defs
     id="defs833">
    <linearGradient
       inkscape:collect="always"
       id="linearGradient949">
      <stop
         style="stop-color:#ececec;stop-opacity:1;"
         offset="0"
         id="stop945" />
      <stop
         style="stop-color:#ececec;stop-opacity:0;"
         offset="1"
         id="stop947" />
    </linearGradient>
    <marker
       style="overflow:visible;"
       id="Arrow2Lend"
       refX="0.0"
       refY="0.0"
       orient="auto"
       inkscape:stockid="Arrow2Lend"
       inkscape:isstock="true">
      <path
         transform="scale(1.1) rotate(180) translate(1,0)"
         d="M 8.7185878,4.0337352 L -2.2072895,0.016013256 L 8.7185884,-4.0017078 C 6.9730900,-1.6296469 6.9831476,1.6157441 8.7185878,4.0337352 z "
         style="fill-rule:evenodd;stroke-width:0.625;stroke-linejoin:round;stroke:#009597;stroke-opacity:1;fill:#009597;fill-opacity:1"
         id="path1449" />
    </marker>
    <marker
       style="overflow:visible;"
       id="Arrow1Lend"
       refX="0.0"
       refY="0.0"
       orient="auto"
       inkscape:stockid="Arrow1Lend"
       inkscape:isstock="true">
      <path
         transform="scale(0.8) rotate(180) translate(12.5,0)"
         style="fill-rule:evenodd;stroke:#009597;stroke-width:1pt;stroke-opacity:1;fill:#009597;fill-opacity:1"
         d="M 0.0,0.0 L 5.0,-5.0 L -12.5,0.0 L 5.0,5.0 L 0.0,0.0 z "
         id="path1431" />
    </marker>
    <marker
       style="overflow:visible"
       id="DotS"
       refX="0.0"
       refY="0.0"
       orient="auto"
       inkscape:stockid="DotS"
       inkscape:isstock="true">
      <path
         transform="scale(0.2) translate(7.4, 1)"
         style="fill-rule:evenodd;stroke:#000000;stroke-width:1pt;stroke-opacity:1;fill:#000000;fill-opacity:1"
         d="M -2.5,-1.0 C -2.5,1.7600000 -4.7400000,4.0 -7.5,4.0 C -10.260000,4.0 -12.5,1.7600000 -12.5,-1.0 C -12.5,-3.7600000 -10.260000,-6.0 -7.5,-6.0 C -4.7400000,-6.0 -2.5,-3.7600000 -2.5,-1.0 z "
         id="path1495" />
    </marker>
    <marker
       style="overflow:visible"
       id="DotL"
       refX="0.0"
       refY="0.0"
       orient="auto"
       inkscape:stockid="DotL"
       inkscape:isstock="true">
      <path
         transform="scale(0.8) translate(7.4, 1)"
         style="fill-rule:evenodd;stroke:#000000;stroke-width:1pt;stroke-opacity:1;fill:#000000;fill-opacity:1"
         d="M -2.5,-1.0 C -2.5,1.7600000 -4.7400000,4.0 -7.5,4.0 C -10.260000,4.0 -12.5,1.7600000 -12.5,-1.0 C -12.5,-3.7600000 -10.260000,-6.0 -7.5,-6.0 C -4.7400000,-6.0 -2.5,-3.7600000 -2.5,-1.0 z "
         id="path1489" />
    </marker>
    <marker
       style="overflow:visible"
       id="marker1706"
       refX="0.0"
       refY="0.0"
       orient="auto"
       inkscape:stockid="Arrow1Lstart"
       inkscape:isstock="true">
      <path
         transform="scale(0.8) translate(12.5,0)"
         style="fill-rule:evenodd;stroke:#009597;stroke-width:1pt;stroke-opacity:1;fill:#009597;fill-opacity:1"
         d="M 0.0,0.0 L 5.0,-5.0 L -12.5,0.0 L 5.0,5.0 L 0.0,0.0 z "
         id="path1704" />
    </marker>
    <marker
       style="overflow:visible"
       id="Arrow1Lstart"
       refX="0.0"
       refY="0.0"
       orient="auto"
       inkscape:stockid="Arrow1Lstart"
       inkscape:isstock="true">
      <path
         transform="scale(0.8) translate(12.5,0)"
         style="fill-rule:evenodd;stroke:#000000;stroke-width:1pt;stroke-opacity:1;fill:#000000;fill-opacity:1"
         d="M 0.0,0.0 L 5.0,-5.0 L -12.5,0.0 L 5.0,5.0 L 0.0,0.0 z "
         id="path1428" />
    </marker>
    <radialGradient
       inkscape:collect="always"
       xlink:href="#linearGradient949"
       id="radialGradient951"
       cx="258.5"
       cy="256.5"
       fx="258.5"
       fy="256.5"
       r="247.5"
       gradientTransform="matrix(3.2383838,0.70909092,-0.40335764,1.8421153,-475.16099,-399.30258)"
       gradientUnits="userSpaceOnUse" />
  </defs>
  <sodipodi:namedview
     id="base"
     pagecolor="#ffffff"
     bordercolor="#666666"
     borderopacity="1.0"
     inkscape:pageopacity="0.0"
     inkscape:pageshadow="2"
     inkscape:zoom="0.70710678"
     inkscape:cx="513.64912"
     inkscape:cy="160.09094"
     inkscape:document-units="px"
     inkscape:current-layer="layer1"
     inkscape:document-rotation="0"
     showgrid="true"
     inkscape:window-width="1920"
     inkscape:window-height="1054"
     inkscape:window-x="1920"
     inkscape:window-y="0"
     inkscape:window-maximized="1">
    <inkscape:grid
       type="xygrid"
       id="grid1403" />
  </sodipodi:namedview>
  <metadata
     id="metadata836">
    <rdf:RDF>
      <cc:Work
         rdf:about="">
        <dc:format>image/svg+xml</dc:format>
        <dc:type
           rdf:resource="http://purl.org/dc/dcmitype/StillImage" />
        <dc:title />
      </cc:Work>
    </rdf:RDF>
  </metadata>
  <g
     inkscape:label="Ebene 1"
     inkscape:groupmode="layer"
     id="layer1">
    <ellipse
       style="fill:url(#radialGradient951);fill-opacity:1;fill-rule:nonzero;stroke-width:4.17706537;stroke-linecap:round;stroke-linejoin:round;paint-order:markers stroke fill;stroke:none"
       id="path1414-6"
       cx="258.5"
       cy="256.5"
       rx="247.5"
       ry="248.5" />
    <ellipse
       style="fill:#f2f2f2;fill-opacity:1;fill-rule:nonzero;stroke-width:4;stroke-linecap:round;stroke-linejoin:round;paint-order:markers stroke fill"
       id="path1414"
       cx="259"
       cy="256"
       rx="235"
       ry="240" />
    <path
       style="mix-blend-mode:normal;fill:none;stroke:#006162;stroke-width:45.35433197;stroke-linecap:butt;stroke-linejoin:bevel;stroke-miterlimit:0.89999998;stroke-dasharray:136.06299591, 45.35433197;stroke-dashoffset:0;stroke-opacity:1"
       d="M 484,466 C 399,401 254.01582,449.12967 232.60388,423.70731 184,366 247.51501,278.83514 319.32466,272.54312 394,266 404,366 340.55844,381.08989 124,446 88.252383,234.52614 178.22077,150.45447 204,126 231.39832,114.91992 266.76005,111.51368 324,106 367.2902,147.81363 364.22727,160.42684 360.16883,177.13955 241.33426,214.58769 168.59316,178.24642 44.000001,116 149,71 99,36"
       id="path1422-5"
       sodipodi:nodetypes="cssccsssc"
       inkscape:connector-curvature="0" />
    <path
       style="mix-blend-mode:normal;fill:none;stroke:#282828;stroke-width:45.35433197;stroke-linecap:butt;stroke-linejoin:miter;stroke-miterlimit:4;stroke-dasharray:none;stroke-opacity:1"
       d="M 319.32466,272.54312 C 394,266 404,366 340.55844,381.08989 124,446 88.25238,234.52614 178.22077,150.45447 204,126 231.39832,114.91992 266.76005,111.51368 324,106 367.29021,147.81363 364.22727,160.42684 c -2.28361,9.40395 -40.90667,25.37297 -87.20997,31.06731"
       id="path1422-5-3"
       sodipodi:nodetypes="cccssc"
       inkscape:connector-curvature="0" />
    <path
       style="fill:#006162;fill-opacity:1;stroke:#006162;stroke-width:1.56124949px;stroke-linecap:butt;stroke-linejoin:miter;stroke-opacity:1"
       d="M 144,8 54,38 c 40,30 80,50 140,30 z"
       id="path2130"
       sodipodi:nodetypes="cccc"
       inkscape:connector-curvature="0" />
  </g>
</svg>
